<svg height="432" viewBox="0 0 447.909 432" width="447.909" xmlns="http://www.w3.org/2000/svg"><g fill="none"><g transform="translate(15.909)"><path d="m216 0c119.293 0 216 96.707 216 216s-96.707 216-216 216-284-118.994-216-216 96.707-216 216-216z"/><path d="m216.00003052 40c-63.53230286 0-91.75279236 44.13549805-136.16299439 122.14401245-14.37530517 25.25099182-29.23999023 51.36148071-47.08270263 76.81578064-7.53808594 10.75390625-14.49230957 26.36250305-1.24771119 51.82102966 27.06741333 52.02856446 116.72781373 101.21917725 184.49340821 101.21917725 97.04669189 0 176-78.95330811 176-176s-78.95330811-176-176-176m0-40c119.29339599 0 216 96.70651245 216 216 0 119.29351807-96.70660401 216-216 216-119.29348755 0-283.99859619-118.99371338-216-216 67.99850464-97.00640869 96.70651245-216 216-216z" fill="#f9fbfe"/></g><g transform="translate(106.72 87.585)"><path d="m121.964 0a128.415 128.415 0 1 1 0 256.829c-70.921 0-168.841-70.743-128.415-128.415s57.494-128.414 128.415-128.414z"/><path d="m121.96400452 40.00001526c-27.57861328 0-40.23815155 17.66699219-66.85522461 64.42114258-8.73153687 15.33738708-17.76031494 31.19685363-28.80516053 46.9533844-1.95399475 2.78762817-3.97453308 5.67016601.36553956 14.01261901 13.50622558 25.9615326 60.70838928 51.44223023 95.29484558 51.44223023 48.7519989 0 88.41468811-39.66268921 88.41468811-88.41468811s-39.66268921-88.41468811-88.41468811-88.41468811m0-40.00001526c70.92146301 0 128.41468811 57.49324036 128.41468811 128.41470337s-57.4932251 128.41470337-128.41468811 128.41470337c-70.92146302 0-168.84068299-70.74324036-128.41468811-128.41470337 40.42591858-57.67146301 57.49322509-128.41470337 128.41468811-128.41470337z" fill="#f9fbfe"/></g></g></svg>